# xmcd
#
# Track frame offsets:
# 150
# 31600
# 56050
# 82087
# 105412
# 131775
# 160962
# 199837
# 226000
# 249275
# 270937
# 296837
#
# Disc length: 4349 seconds
#
#
# Revision: 3
# Processed by: cddbd v1.5.1PL0 Copyright (c) Steve Scherf et al.
# Submitted via: FreeRIP 2.81 
#
DISCID=9c10fb0c
DTITLE=Misia - Love and Ballads
DYEAR=2004
DGENRE=R&B
TTITLE0=Everything
TTITLE1=Øv«s«S©]«Vßg«U«B∆Í
TTITLE2=ß—«s«Q∆Í§È∆‡
TTITLE3=??∆˝«M©Í∆Û∆˝«h«M
TTITLE4=∆Ë«UÆL«U«e«e«N
TTITLE5=It's Just Love
TTITLE6=The Glory Day
TTITLE7=∆Ë«U§È«U«o∆Ï«R
TTITLE8=≠∏«Z§Ë«yß—«s«F§p∆˚«Q≥æ~Star Ocean Version
TTITLE9=Æ…«y«O«h«M
TTITLE10=¨P«U≠∞«r•C
TTITLE11=™G«M«Q∆ı?∆ı?????
EXTD=
EXTT0=
EXTT1=
EXTT2=
EXTT3=
EXTT4=
EXTT5=
EXTT6=
EXTT7=
EXTT8=
EXTT9=
EXTT10=
EXTT11=
PLAYORDER=
